nColumns=19
nRows=60
DataType=double
version=3
OpenSimVersion=4.1
endheader
time	ground_force_1_vx	ground_force_1_vy	ground_force_1_vz	ground_force_1_px	ground_force_1_py	ground_force_1_pz	ground_force_1_mx	ground_force_1_my	ground_force_1_mz	ground_force_2_vx	ground_force_2_vy	ground_force_2_vz	ground_force_2_px	ground_force_2_py	ground_force_2_pz	ground_force_2_mx	ground_force_2_my	ground_force_2_mz
0.31	2.65281	20.8126	6.07362	0.0562986	0.006	-0.191423	0	0.655823	0	0	0	0	0.73071	0	-0.283343	0	0	0
0.32	1.13713	36.2066	7.70049	0.0808496	0.006	-0.193783	0	0.573386	0	0	0	0	0.73071	0	-0.283343	0	0	0
0.33	-1.15553	55.3204	9.44894	0.0960946	0.006	-0.195062	0	0.539447	0	0	0	0	0.73071	0	-0.283343	0	0	0
0.34	-4.38381	78.3002	11.2393	0.106117	0.006	-0.195763	0	0.521855	0	0	0	0	0.73071	0	-0.283343	0	0	0
0.35	-8.70254	105.065	12.9553	0.113629	0.006	-0.196182	0	0.509211	0	0	0	0	0.73071	0	-0.283343	0	0	0
0.36	-14.2132	135.279	14.4481	0.119814	0.006	-0.19644	0	0.495763	0	0	0	0	0.73071	0	-0.283343	0	0	0
0.37	-20.8551	168.441	15.5474	0.125263	0.006	-0.196584	0	0.477074	0	0	0	0	0.73071	0	-0.283343	0	0	0
0.38	-28.4205	203.925	16.0741	0.130287	0.006	-0.196632	0	0.449439	0	0	0	0	0.73071	0	-0.283343	0	0	0
0.39	-36.6475	240.959	15.8603	0.135061	0.006	-0.196597	0	0.410677	0	0	0	0	0.73071	0	-0.283343	0	0	0
0.4	-45.2544	278.667	14.7791	0.139681	0.006	-0.196493	0	0.36154	0	0	0	0	0.73071	0	-0.283343	0	0	0
0.41	-53.942	316.175	12.7832	0.144197	0.006	-0.196339	0	0.307498	0	0	0	0	0.73071	0	-0.283343	0	0	0
0.42	-62.4119	352.708	9.93701	0.148626	0.006	-0.196163	0	0.259057	0	0	0	0	0.73071	0	-0.283343	0	0	0
0.43	-70.3833	387.65	6.42342	0.152959	0.006	-0.195997	0	0.229506	0	0	0	0	0.73071	0	-0.283343	0	0	0
0.44	-77.6068	420.586	2.50692	0.157174	0.006	-0.195875	0	0.23065	0	0	0	0	0.73071	0	-0.283343	0	0	0
0.45	-83.8892	451.311	-1.52555	0.161246	0.006	-0.195825	0	0.268997	0	0	0	0	0.73071	0	-0.283343	0	0	0
0.46	-89.0979	479.77	-5.39942	0.165148	0.006	-0.195868	0	0.345832	0	0	0	0	0.73071	0	-0.283343	0	0	0
0.47	-93.1478	505.932	-8.87201	0.16886	0.006	-0.196016	0	0.458634	0	0	0	0	0.73071	0	-0.283343	0	0	0
0.48	-96.0008	529.729	-11.7659	0.172366	0.006	-0.19627	0	0.601237	0	0	0	0	0.73071	0	-0.283343	0	0	0
0.49	-97.6712	551.042	-14	0.175668	0.006	-0.196619	0	0.764458	0	0	0	0	0.73071	0	-0.283343	0	0	0
0.5	-98.2225	569.708	-15.5868	0.178781	0.006	-0.197043	0	0.93825	0	0	0	0	0.73071	0	-0.283343	0	0	0
0.51	-97.7594	585.542	-16.6078	0.181732	0.006	-0.197517	0	1.11343	0	0	0	0	0.73071	0	-0.283343	0	0	0
0.52	-96.4145	598.374	-17.188	0.184554	0.006	-0.198015	0	1.28241	0	0	0	0	0.73071	0	-0.283343	0	0	0
0.53	-94.3363	608.083	-17.4654	0.187285	0.006	-0.198515	0	1.43936	0	0	0	0	0.73071	0	-0.283343	0	0	0
0.54	-91.6777	614.628	-17.5646	0.189964	0.006	-0.198999	0	1.57999	0	0	0	0	0.73071	0	-0.283343	0	0	0
0.55	-88.5841	618.077	-17.5769	0.192627	0.006	-0.199454	0	1.701	0	0	0	0	0.73071	0	-0.283343	0	0	0
0.56	-85.1855	618.625	-17.5507	0.195307	0.006	-0.199876	0	1.79965	0	0	0	0	0.73071	0	-0.283343	0	0	0
0.57	-81.5912	616.6	-17.493	0.198029	0.006	-0.200264	0	1.87339	0	0	0	0	0.73071	0	-0.283343	0	0	0
0.58	-77.8902	612.434	-17.3815	0.200813	0.006	-0.200623	0	1.91963	0	0	0	0	0.73071	0	-0.283343	0	0	0
0.59	-74.1529	606.63	-17.1815	0.203668	0.006	-0.200959	0	1.93574	0	0	0	0	0.73071	0	-0.283343	0	0	0
0.6	-70.4341	599.713	-16.862	0.206594	0.006	-0.201279	0	1.91944	0	0	0	0	0.73071	0	-0.283343	0	0	0
0.61	-66.7739	592.185	-16.4064	0.209587	0.006	-0.201588	0	1.86915	0	0	0	0	0.73071	0	-0.283343	0	0	0
0.62	-63.2002	584.499	-15.817	0.212635	0.006	-0.201889	0	1.78429	0	0	0	0	0.73071	0	-0.283343	0	0	0
0.63	-59.7295	577.026	-15.1145	0.215721	0.006	-0.202183	0	1.6655	0	0	0	0	0.73071	0	-0.283343	0	0	0
0.64	-56.3678	570.055	-14.3307	0.218829	0.006	-0.20247	0	1.51465	0	0	0	0	0.73071	0	-0.283343	0	0	0
0.65	-53.1112	563.79	-13.5013	0.221939	0.006	-0.202748	0	1.3345	0	0	0	0	0.73071	0	-0.283343	0	0	0
0.66	-49.9483	558.363	-12.66	0.225032	0.006	-0.203014	0	1.12845	0	0	0	0	0.73071	0	-0.283343	0	0	0
0.67	-46.8632	553.851	-11.8359	0.228092	0.006	-0.203265	0	0.900293	0	0	0	0	0.73071	0	-0.283343	0	0	0
0.68	-43.8376	550.28	-11.054	0.231107	0.006	-0.203495	0	0.653964	0	0	0	0	0.73071	0	-0.283343	0	0	0
0.69	-40.8524	547.641	-10.3363	0.234065	0.006	-0.203702	0	0.393432	0	0	0	0	0.73071	0	-0.283343	0	0	0
0.7	-37.8889	545.899	-9.70089	0.236961	0.006	-0.203882	0	0.122584	0	0	0	0	0.73071	0	-0.283343	0	0	0
0.71	-34.9309	544.998	-9.16159	0.239792	0.006	-0.204031	0	-0.154932	0	0	0	0	0.73071	0	-0.283343	0	0	0
0.72	-31.9652	544.873	-8.72792	0.242562	0.006	-0.204148	0	-0.435837	0	0	0	0	0.73071	0	-0.283343	0	0	0
0.73	-28.9821	545.457	-8.40528	0.245275	0.006	-0.204229	0	-0.71725	0	0	0	0	0.73071	0	-0.283343	0	0	0
0.74	-25.974	546.686	-8.19525	0.247938	0.006	-0.204276	0	-0.996503	0	0	0	0	0.73071	0	-0.283343	0	0	0
0.75	-22.9338	548.505	-8.09603	0.250558	0.006	-0.204286	0	-1.27109	0	0	0	0	0.73071	0	-0.283343	0	0	0
0.76	-19.8525	550.862	-8.10327	0.25314	0.006	-0.20426	0	-1.53876	0	0	0	0	0.73071	0	-0.283343	0	0	0
0.77	-16.7174	553.713	-8.21107	0.255686	0.006	-0.204198	0	-1.7976	0	0	0	0	0.73071	0	-0.283343	0	0	0
0.78	-13.5113	557.016	-8.4123	0.258197	0.006	-0.2041	0	-2.04599	0	0	0	0	0.73071	0	-0.283343	0	0	0
0.79	-10.2121	560.733	-8.699	0.260669	0.006	-0.203968	0	-2.2825	0	0	0	0	0.73071	0	-0.283343	0	0	0
0.8	-6.79406	564.825	-9.06374	0.263097	0.006	-0.203805	0	-2.50585	0	0	0	0	0.73071	0	-0.283343	0	0	0
0.81	-3.22851	569.246	-9.50109	0.265476	0.006	-0.203611	0	-2.71491	0	0	0	0	0.73071	0	-0.283343	0	0	0
0.82	0.514063	573.946	-10.0082	0.267797	0.006	-0.203392	0	-2.90858	0	0	0	0	0.73071	0	-0.283343	0	0	0
0.83	4.46159	578.872	-10.5837	0.270055	0.006	-0.203151	0	-3.08575	0	0	0	0	0.73071	0	-0.283343	0	0	0
0.84	8.63727	583.967	-11.2259	0.272243	0.006	-0.202896	0	-3.24541	0	0	0	0	0.73071	0	-0.283343	0	0	0
0.85	13.0562	589.173	-11.9302	0.27436	0.006	-0.202633	0	-3.38661	0	0	0	0	0.73071	0	-0.283343	0	0	0
0.86	17.7236	594.426	-12.6861	0.276403	0.006	-0.202373	0	-3.50854	0	0	0	0	0.73071	0	-0.283343	0	0	0
0.87	22.6339	599.65	-13.4767	0.278375	0.006	-0.202123	0	-3.61049	0	0	0	0	0.73071	0	-0.283343	0	0	0
0.88	27.7717	604.757	-14.2788	0.280279	0.006	-0.201891	0	-3.69197	0	0	0	0	0.73071	0	-0.283343	0	0	0
0.89	33.1136	609.641	-15.0635	0.282118	0.006	-0.201682	0	-3.75276	0	0	0	0	0.73071	0	-0.283343	0	0	0
0.9	38.63	614.178	-15.7989	0.283895	0.006	-0.201499	0	-3.79293	0	0	0	0	0.73071	0	-0.283343	0	0	0
